Coordinates
version=1
nRows=13
nColumns=40
inDegrees=yes

Units are S.I. units (second, meters, Newtons, ...)
If the header above contains a line with 'inDegrees', this indicates whether rotational values are in degrees (yes) or radians (no).

endheader
time	pelvis_tilt	pelvis_list	pelvis_rotation	pelvis_tx	pelvis_ty	pelvis_tz	hip_flexion_r	hip_adduction_r	hip_rotation_r	knee_angle_r	knee_angle_r_beta	ankle_angle_r	subtalar_angle_r	mtp_angle_r	hip_flexion_l	hip_adduction_l	hip_rotation_l	knee_angle_l	knee_angle_l_beta	ankle_angle_l	subtalar_angle_l	mtp_angle_l	lumbar_extension	lumbar_bending	lumbar_rotation	arm_flex_r	arm_add_r	arm_rot_r	elbow_flex_r	pro_sup_r	wrist_flex_r	wrist_dev_r	arm_flex_l	arm_add_l	arm_rot_l	elbow_flex_l	pro_sup_l	wrist_flex_l	wrist_dev_l
      2.81500000	    -35.58623007	      3.42998886	      6.57294237	     -0.44997316	      0.59601638	     -0.92123738	    104.62866999	    -19.70871324	     13.83016127	    105.73033857	      1.84534253	     38.32722456	      0.00000000	      0.00000000	    104.52289332	     -8.77138350	      3.77960068	    101.27178102	      1.76752602	     32.84904208	      0.00000000	      0.00000000	    -36.69052838	     -0.79252653	     -2.20887095	    -27.21686159	    -59.37124983	     32.71517104	    104.90008360	     88.14876282	      0.00000000	      0.00000000	     12.44972125	    -67.65927902	     72.17596909	    109.82765955	     88.15841877	      0.00000000	      0.00000000
      2.82000000	    -35.60925061	      3.45225805	      6.56039115	     -0.45006124	      0.59594485	     -0.92114777	    104.67051199	    -19.67266661	     13.86147740	    105.73800354	      1.84547631	     38.33811266	      0.00000000	      0.00000000	    104.54918530	     -8.80198292	      3.75483194	    101.27011693	      1.76749697	     32.83660507	      0.00000000	      0.00000000	    -36.67639293	     -0.81566565	     -2.27016246	    -27.09163453	    -59.39573462	     32.81065244	    104.90828238	     88.14917357	      0.00000000	      0.00000000	     12.13115400	    -67.70092222	     71.86873993	    109.83797873	     88.16431627	      0.00000000	      0.00000000
      2.82500000	    -35.54865923	      3.54860131	      6.55493231	     -0.44995613	      0.59608699	     -0.92112164	    104.61992514	    -19.66316926	     13.95489994	    105.73333294	      1.84539479	     38.50516240	      0.00000000	      0.00000000	    104.42826720	     -8.83138795	      3.64246333	    101.26523063	      1.76741169	     32.91978487	      0.00000000	      0.00000000	    -36.75181023	     -0.89249549	     -2.45870810	    -26.52702485	    -59.50751113	     33.41264171	    104.87377623	     88.09841387	      0.00000000	      0.00000000	     11.68805548	    -67.75579478	     71.46202398	    109.82662058	     88.16151323	      0.00000000	      0.00000000
      2.83000000	    -35.64169355	      3.52887332	      6.60499272	     -0.45018241	      0.59592887	     -0.92117515	    104.74882989	    -19.70140922	     13.95495284	    105.73385239	      1.84540385	     38.34070931	      0.00000000	      0.00000000	    104.54344283	     -8.77228374	      3.65806553	    101.22391345	      1.76669057	     32.83253759	      0.00000000	      0.00000000	    -36.63085564	     -0.83646561	     -3.02482013	    -24.90124075	    -59.95725413	     35.18357028	    104.80912816	     88.14033891	      0.00000000	      0.00000000	      9.31600623	    -67.91737852	     69.14507745	    109.93765635	     88.14484893	      0.00000000	      0.00000000
      2.83500000	    -35.64723132	      3.51997911	      6.60447340	     -0.45028167	      0.59584725	     -0.92118648	    104.76434632	    -19.68380107	     13.97966274	    105.75142581	      1.84571057	     38.32055337	      0.00000000	      0.00000000	    104.57455139	     -8.75798897	      3.68512480	    101.24858800	      1.76712122	     32.80111511	      0.00000000	      0.00000000	    -36.66650763	     -0.84767759	     -1.66599540	    -28.94687456	    -58.86473596	     30.88092917	    104.97411854	     88.15104229	      0.00000000	      0.00000000	     14.96766744	    -67.49449389	     74.74309026	    109.73256505	     88.15144156	      0.00000000	      0.00000000
      2.84000000	    -35.67866267	      3.51381867	      6.59142912	     -0.45035349	      0.59579073	     -0.92106673	    104.80448336	    -19.66747730	     13.95132416	    105.74250054	      1.84555479	     38.30107972	      0.00000000	      0.00000000	    104.61136651	     -8.80429198	      3.66838956	    101.24034655	      1.76697738	     32.79023747	      0.00000000	      0.00000000	    -36.62437797	     -0.83095689	     -2.35495721	    -26.93210797	    -59.44602350	     33.00867852	    104.91491505	     88.15408256	      0.00000000	      0.00000000	     11.84342422	    -67.72856605	     71.61833618	    109.84814823	     88.15626498	      0.00000000	      0.00000000
      2.84500000	    -35.66630050	      3.53667205	      6.58449900	     -0.45036403	      0.59574481	     -0.92101673	    104.78667762	    -19.64194569	     13.98172849	    105.75044058	      1.84569337	     38.43292512	      0.00000000	      0.00000000	    104.60288612	     -8.82801325	      3.64169470	    101.25716322	      1.76727089	     32.80344511	      0.00000000	      0.00000000	    -36.64315221	     -0.84576060	     -2.41220082	    -26.85765263	    -59.45157829	     33.08160646	    104.89330958	     88.12388314	      0.00000000	      0.00000000	     11.37440264	    -67.74750312	     71.11868379	    109.83553235	     88.14900759	      0.00000000	      0.00000000
      2.85000000	    -35.66287788	      3.52939523	      6.63885247	     -0.45040546	      0.59576534	     -0.92113884	    104.80484713	    -19.71467303	     13.98934340	    105.75702206	      1.84580824	     38.32148530	      0.00000000	      0.00000000	    104.59909037	     -8.75687162	      3.64211461	    101.24108910	      1.76699034	     32.78169966	      0.00000000	      0.00000000	    -36.65723664	     -0.81940910	     -1.67788048	    -28.95945285	    -58.86648068	     30.88439322	    104.97661050	     88.14843751	      0.00000000	      0.00000000	     14.88281490	    -67.49362025	     74.69502483	    109.73957938	     88.15263820	      0.00000000	      0.00000000
      2.85500000	    -35.69708079	      3.54422175	      6.61281890	     -0.45053059	      0.59566309	     -0.92104695	    104.86484488	    -19.66867752	     14.00915335	    105.76249658	      1.84590379	     38.27673203	      0.00000000	      0.00000000	    104.64014334	     -8.79040271	      3.63814240	    101.23485709	      1.76688157	     32.76477879	      0.00000000	      0.00000000	    -36.61368682	     -0.84827085	     -1.70850745	    -28.80475585	    -58.92448219	     31.05482213	    104.99509211	     88.14072662	      0.00000000	      0.00000000	     14.70679015	    -67.53117806	     74.52352400	    109.78302970	     88.14963295	      0.00000000	      0.00000000
      2.86000000	    -35.67470459	      3.54973401	      6.61599854	     -0.45050867	      0.59563683	     -0.92103914	    104.83741523	    -19.67490582	     14.00686297	    105.76685499	      1.84597986	     38.37928860	      0.00000000	      0.00000000	    104.61598848	     -8.79169698	      3.63017932	    101.24801096	      1.76711115	     32.78948545	      0.00000000	      0.00000000	    -36.67746212	     -0.81156374	     -2.05818759	    -28.13100962	    -59.15233879	     31.69271046	    105.05773845	     88.13339020	      0.00000000	      0.00000000	     12.58017323	    -67.64771497	     72.26178526	    109.85655952	     88.18830005	      0.00000000	      0.00000000
      2.86500000	    -35.68091794	      3.59658968	      6.62207044	     -0.45053322	      0.59566847	     -0.92104434	    104.87058377	    -19.66734240	     14.07560134	    105.76962165	      1.84602815	     38.28117011	      0.00000000	      0.00000000	    104.60234778	     -8.78458870	      3.58064468	    101.23796247	      1.76693577	     32.78696534	      0.00000000	      0.00000000	    -36.64269263	     -0.86770863	     -1.67362081	    -28.99635581	    -58.85637158	     30.84725247	    105.03252267	     88.15484942	      0.00000000	      0.00000000	     14.79653907	    -67.49897017	     74.59941104	    109.74585002	     88.15482824	      0.00000000	      0.00000000
      2.87000000	    -35.76112735	      3.59330732	      6.63885631	     -0.45067030	      0.59550495	     -0.92107415	    104.97379440	    -19.67236826	     14.08844075	    105.76709302	      1.84598401	     38.29727375	      0.00000000	      0.00000000	    104.69451089	     -8.77599573	      3.56668081	    101.22543261	      1.76671709	     32.76119652	      0.00000000	      0.00000000	    -36.53266740	     -0.82356501	     -2.73768284	    -25.96637781	    -59.72931380	     34.07639895	    104.88773544	     88.14490321	      0.00000000	      0.00000000	     10.10643845	    -67.81720079	     69.87557159	    109.92544333	     88.15528088	      0.00000000	      0.00000000
      2.87500000	    -35.72595621	      3.57892246	      6.62015275	     -0.45066081	      0.59549989	     -0.92100603	    104.92317491	    -19.67432887	     14.03966312	    105.76567111	      1.84595920	     38.31367268	      0.00000000	      0.00000000	    104.66072565	     -8.80185224	      3.58098277	    101.22882890	      1.76677636	     32.79773642	      0.00000000	      0.00000000	    -36.57802370	     -0.85133262	     -1.60821762	    -29.13680916	    -58.84736391	     30.75748579	    105.01572581	     88.14388690	      0.00000000	      0.00000000	     14.89948886	    -67.50435819	     74.69833991	    109.77329647	     88.14445435	      0.00000000	      0.00000000
